<svg preserveAspectRatio="none" width="100%" height="100%" overflow="visible" style="display: block;" viewBox="0 0 30 30" fill="none" xmlns="http://www.w3.org/2000/svg">
<g id="SVG">
<path id="Vector" d="M15 24.9998V27.4998" stroke="var(--stroke-0, #0A3D6B)" strokeWidth="2.5" strokeLinecap="round" strokeLinejoin="round"/>
<path id="Vector_2" d="M15 2.50001V5.00001" stroke="var(--stroke-0, #0A3D6B)" strokeWidth="2.5" strokeLinecap="round" strokeLinejoin="round"/>
<path id="Vector_3" d="M21.25 24.9998V27.4998" stroke="var(--stroke-0, #0A3D6B)" strokeWidth="2.5" strokeLinecap="round" strokeLinejoin="round"/>
<path id="Vector_4" d="M21.25 2.50001V5.00001" stroke="var(--stroke-0, #0A3D6B)" strokeWidth="2.5" strokeLinecap="round" strokeLinejoin="round"/>
<path id="Vector_5" d="M2.49999 15H4.99999" stroke="var(--stroke-0, #0A3D6B)" strokeWidth="2.5" strokeLinecap="round" strokeLinejoin="round"/>
<path id="Vector_6" d="M2.5 21.25H5" stroke="var(--stroke-0, #0A3D6B)" strokeWidth="2.5" strokeLinecap="round" strokeLinejoin="round"/>
<path id="Vector_7" d="M2.5 8.75H5" stroke="var(--stroke-0, #0A3D6B)" strokeWidth="2.5" strokeLinecap="round" strokeLinejoin="round"/>
<path id="Vector_8" d="M25 15H27.5" stroke="var(--stroke-0, #0A3D6B)" strokeWidth="2.5" strokeLinecap="round" strokeLinejoin="round"/>
<path id="Vector_9" d="M25 21.25H27.5" stroke="var(--stroke-0, #0A3D6B)" strokeWidth="2.5" strokeLinecap="round" strokeLinejoin="round"/>
<path id="Vector_10" d="M25 8.75H27.5" stroke="var(--stroke-0, #0A3D6B)" strokeWidth="2.5" strokeLinecap="round" strokeLinejoin="round"/>
<path id="Vector_11" d="M8.74995 24.9998V27.4998" stroke="var(--stroke-0, #0A3D6B)" strokeWidth="2.5" strokeLinecap="round" strokeLinejoin="round"/>
<path id="Vector_12" d="M8.74995 2.50001V5.00001" stroke="var(--stroke-0, #0A3D6B)" strokeWidth="2.5" strokeLinecap="round" strokeLinejoin="round"/>
<path id="Vector_13" d="M22.4999 4.99902H7.49994C6.11923 4.99902 4.99994 6.11831 4.99994 7.49902V22.499C4.99994 23.8797 6.11923 24.999 7.49994 24.999H22.4999C23.8807 24.999 24.9999 23.8797 24.9999 22.499V7.49902C24.9999 6.11831 23.8807 4.99902 22.4999 4.99902Z" stroke="var(--stroke-0, #0A3D6B)" strokeWidth="2.5" strokeLinecap="round" strokeLinejoin="round"/>
<path id="Vector_14" d="M18.75 10H11.25C10.5596 10 10 10.5596 10 11.25V18.75C10 19.4404 10.5596 20 11.25 20H18.75C19.4404 20 20 19.4404 20 18.75V11.25C20 10.5596 19.4404 10 18.75 10Z" stroke="var(--stroke-0, #0A3D6B)" strokeWidth="2.5" strokeLinecap="round" strokeLinejoin="round"/>
</g>
</svg>
