<svg preserveAspectRatio="none" width="100%" height="100%" overflow="visible" style="display: block;" viewBox="0 0 30 30" fill="none" xmlns="http://www.w3.org/2000/svg">
<g id="SVG">
<path id="Vector" d="M20.3087 9.70039C21.7125 11.1065 22.5009 13.0122 22.5009 14.9991C22.5009 16.986 21.7125 18.8917 20.3087 20.2979" stroke="var(--stroke-0, #0A3D6B)" strokeWidth="2.5" strokeLinecap="round" strokeLinejoin="round"/>
<path id="Vector_2" d="M23.8438 6.16602C26.1848 8.50981 27.4998 11.6871 27.4998 14.9998C27.4998 18.3125 26.1848 21.4897 23.8438 23.8335" stroke="var(--stroke-0, #0A3D6B)" strokeWidth="2.5" strokeLinecap="round" strokeLinejoin="round"/>
<path id="Vector_3" d="M6.15621 23.8335C3.81511 21.4897 2.50012 18.3125 2.50012 14.9998C2.50012 11.6871 3.81511 8.50981 6.15621 6.16602" stroke="var(--stroke-0, #0A3D6B)" strokeWidth="2.5" strokeLinecap="round" strokeLinejoin="round"/>
<path id="Vector_4" d="M9.69115 20.2979C8.28741 18.8917 7.499 16.986 7.499 14.9991C7.499 13.0122 8.28741 11.1065 9.69115 9.70039" stroke="var(--stroke-0, #0A3D6B)" strokeWidth="2.5" strokeLinecap="round" strokeLinejoin="round"/>
<path id="Vector_5" d="M14.9999 17.4991C16.3807 17.4991 17.4999 16.3798 17.4999 14.9991C17.4999 13.6184 16.3807 12.4991 14.9999 12.4991C13.6192 12.4991 12.4999 13.6184 12.4999 14.9991C12.4999 16.3798 13.6192 17.4991 14.9999 17.4991Z" stroke="var(--stroke-0, #0A3D6B)" strokeWidth="2.5" strokeLinecap="round" strokeLinejoin="round"/>
</g>
</svg>
