<svg preserveAspectRatio="none" width="100%" height="100%" overflow="visible" style="display: block;" viewBox="0 0 30 30" fill="none" xmlns="http://www.w3.org/2000/svg">
<g id="SVG">
<path id="Vector" d="M2.49994 7.50023C3.24994 8.12523 3.99994 8.75023 5.62494 8.75023C8.74994 8.75023 8.74994 6.25023 11.8749 6.25023C15.1249 6.25023 14.8749 8.75023 18.1249 8.75023C21.2499 8.75023 21.2499 6.25023 24.3749 6.25023C25.9999 6.25023 26.7499 6.87523 27.4999 7.50023" stroke="var(--stroke-0, #0A3D6B)" strokeWidth="2.5" strokeLinecap="round" strokeLinejoin="round"/>
<path id="Vector_2" d="M2.49994 14.9999C3.24994 15.6249 3.99994 16.2499 5.62494 16.2499C8.74994 16.2499 8.74994 13.7499 11.8749 13.7499C15.1249 13.7499 14.8749 16.2499 18.1249 16.2499C21.2499 16.2499 21.2499 13.7499 24.3749 13.7499C25.9999 13.7499 26.7499 14.3749 27.4999 14.9999" stroke="var(--stroke-0, #0A3D6B)" strokeWidth="2.5" strokeLinecap="round" strokeLinejoin="round"/>
<path id="Vector_3" d="M2.5 22.5C3.25 23.125 4 23.75 5.625 23.75C8.75 23.75 8.75 21.25 11.875 21.25C15.125 21.25 14.875 23.75 18.125 23.75C21.25 23.75 21.25 21.25 24.375 21.25C26 21.25 26.75 21.875 27.5 22.5" stroke="var(--stroke-0, #0A3D6B)" strokeWidth="2.5" strokeLinecap="round" strokeLinejoin="round"/>
</g>
</svg>
