<svg preserveAspectRatio="none" width="100%" height="100%" overflow="visible" style="display: block;" viewBox="0 0 30 30" fill="none" xmlns="http://www.w3.org/2000/svg">
<g id="SVG">
<path id="Vector" d="M5.00036 17.4995C4.76381 17.5003 4.5319 17.4339 4.33155 17.3082C4.1312 17.1824 3.97065 17.0024 3.86854 16.789C3.76644 16.5757 3.72697 16.3377 3.75473 16.1028C3.78249 15.8679 3.87633 15.6457 4.02536 15.462L16.4004 2.71197C16.4932 2.60482 16.6197 2.53242 16.7591 2.50664C16.8985 2.48086 17.0425 2.50324 17.1675 2.5701C17.2925 2.63697 17.3911 2.74434 17.447 2.87461C17.503 3.00487 17.513 3.15028 17.4754 3.28697L15.0754 10.812C15.0046 11.0014 14.9808 11.2051 15.0061 11.4057C15.0314 11.6063 15.1049 11.7978 15.2205 11.9638C15.336 12.1297 15.4901 12.2651 15.6695 12.3584C15.8488 12.4517 16.0482 12.5001 16.2504 12.4995H25.0004C25.2369 12.4987 25.4688 12.565 25.6692 12.6907C25.8695 12.8165 26.0301 12.9965 26.1322 13.2099C26.2343 13.4233 26.2737 13.6612 26.246 13.8961C26.2182 14.1311 26.1244 14.3533 25.9754 14.537L13.6004 27.287C13.5075 27.3941 13.381 27.4665 13.2416 27.4923C13.1022 27.5181 12.9582 27.4957 12.8332 27.4288C12.7082 27.362 12.6096 27.2546 12.5537 27.1243C12.4977 26.9941 12.4878 26.8487 12.5254 26.712L14.9254 19.187C14.9961 18.9976 15.0199 18.7938 14.9946 18.5932C14.9693 18.3926 14.8958 18.2011 14.7802 18.0352C14.6647 17.8693 14.5106 17.7338 14.3313 17.6405C14.1519 17.5472 13.9525 17.4988 13.7504 17.4995H5.00036Z" stroke="var(--stroke-0, #0A3D6B)" strokeWidth="2.5" strokeLinecap="round" strokeLinejoin="round"/>
</g>
</svg>
