<svg preserveAspectRatio="none" width="100%" height="100%" overflow="visible" style="display: block;" viewBox="0 0 30 30" fill="none" xmlns="http://www.w3.org/2000/svg">
<g id="SVG">
<path id="Vector" d="M8.75 20.374C11.5 20.374 13.75 18.0865 13.75 15.3115C13.75 13.8615 13.0375 12.4865 11.6125 11.324C10.1875 10.1615 9.1125 8.43652 8.75 6.62402C8.3875 8.43652 7.325 10.174 5.8875 11.324C4.45 12.474 3.75 13.874 3.75 15.3115C3.75 18.0865 6 20.374 8.75 20.374Z" stroke="var(--stroke-0, #0A3D6B)" stroke-width="2.5" stroke-linecap="round" stroke-linejoin="round"/>
<path id="Vector_2" d="M15.7 8.24927C16.5597 6.87567 17.1691 5.36057 17.5 3.77427C18.125 6.89927 20 9.89927 22.5 11.8993C25 13.8993 26.25 16.2743 26.25 18.7743C26.2571 20.5021 25.7511 22.1932 24.796 23.6331C23.8409 25.073 22.4798 26.197 20.8852 26.8624C19.2905 27.5278 17.5343 27.7048 15.839 27.3709C14.1436 27.0369 12.5857 26.2072 11.3625 24.9868" stroke="var(--stroke-0, #0A3D6B)" stroke-width="2.5" stroke-linecap="round" stroke-linejoin="round"/>
</g>
</svg>
