<svg preserveAspectRatio="none" width="100%" height="100%" overflow="visible" style="display: block;" viewBox="0 0 58.1451 58.1451" fill="none" xmlns="http://www.w3.org/2000/svg">
<g id="SVG">
<path id="Vector" d="M30.5282 52.8127C35.0344 48.9219 48.4538 36.3238 48.4538 24.2272C48.4538 19.0868 46.4118 14.157 42.7771 10.5222C39.1423 6.88745 34.2125 4.84546 29.0721 4.84546C23.9318 4.84546 19.002 6.88745 15.3672 10.5222C11.7324 14.157 9.69043 19.0868 9.69043 24.2272C9.69043 36.3238 23.1098 48.9219 27.6161 52.8127C28.0359 53.1284 28.5469 53.2991 29.0721 53.2991C29.5974 53.2991 30.1084 53.1284 30.5282 52.8127Z" stroke="var(--stroke-0, white)" stroke-width="4.84543" stroke-linecap="round" stroke-linejoin="round"/>
<path id="Vector_2" d="M29.0728 31.4953C33.0869 31.4953 36.341 28.2412 36.341 24.2271C36.341 20.213 33.0869 16.959 29.0728 16.959C25.0587 16.959 21.8047 20.213 21.8047 24.2271C21.8047 28.2412 25.0587 31.4953 29.0728 31.4953Z" stroke="var(--stroke-0, white)" stroke-width="4.84543" stroke-linecap="round" stroke-linejoin="round"/>
</g>
</svg>
