<svg preserveAspectRatio="none" width="100%" height="100%" overflow="visible" style="display: block;" viewBox="0 0 29.5196 29.5196" fill="none" xmlns="http://www.w3.org/2000/svg">
<g id="SVG">
<path id="Vector" d="M24.5998 15.9899C24.5998 22.1398 20.2949 25.2148 15.1781 26.9983C14.9102 27.0891 14.6192 27.0847 14.3541 26.986C9.22502 25.2148 4.92008 22.1398 4.92008 15.9899V7.38003C4.92008 7.05382 5.04966 6.74097 5.28033 6.5103C5.511 6.27964 5.82385 6.15005 6.15006 6.15005C8.61003 6.15005 11.685 4.67407 13.8252 2.80449C14.0857 2.58186 14.4172 2.45954 14.76 2.45954C15.1027 2.45954 15.4342 2.58186 15.6947 2.80449C17.8472 4.68637 20.9099 6.15005 23.3698 6.15005C23.6961 6.15005 24.0089 6.27964 24.2396 6.5103C24.4702 6.74097 24.5998 7.05382 24.5998 7.38003V15.9899Z" stroke="var(--stroke-0, #5CCB5F)" strokeWidth="2.45997" strokeLinecap="round" strokeLinejoin="round"/>
</g>
</svg>
