<svg preserveAspectRatio="none" width="100%" height="100%" overflow="visible" style="display: block;" viewBox="0 0 29.5196 29.5196" fill="none" xmlns="http://www.w3.org/2000/svg">
<g id="SVG">
<path id="Vector" d="M15.7807 2.68197C15.4602 2.53579 15.112 2.46013 14.7598 2.46013C14.4075 2.46013 14.0594 2.53579 13.7389 2.68197L3.19793 7.47891C2.97967 7.57515 2.7941 7.73278 2.66383 7.9326C2.53355 8.13242 2.46419 8.36581 2.46419 8.60435C2.46419 8.84288 2.53355 9.07627 2.66383 9.27609C2.7941 9.47591 2.97967 9.63354 3.19793 9.72978L13.7512 14.539C14.0717 14.6852 14.4198 14.7609 14.7721 14.7609C15.1243 14.7609 15.4725 14.6852 15.793 14.539L26.3462 9.74208C26.5645 9.64584 26.7501 9.48821 26.8803 9.28839C27.0106 9.08857 27.08 8.85518 27.08 8.61665C27.08 8.37811 27.0106 8.14472 26.8803 7.9449C26.7501 7.74508 26.5645 7.58745 26.3462 7.49121L15.7807 2.68197Z" stroke="var(--stroke-0, #5CCB5F)" stroke-width="2.45997" stroke-linecap="round" stroke-linejoin="round"/>
<path id="Vector_2" d="M2.46 14.7602C2.45942 14.9954 2.52632 15.2259 2.65276 15.4243C2.77921 15.6227 2.95989 15.7806 3.17339 15.8794L13.7513 20.6887C14.0701 20.833 14.416 20.9077 14.766 20.9077C15.116 20.9077 15.4619 20.833 15.7807 20.6887L26.334 15.8917C26.5517 15.7939 26.7363 15.6348 26.8651 15.4339C26.994 15.2329 27.0616 14.9988 27.0597 14.7602" stroke="var(--stroke-0, #5CCB5F)" stroke-width="2.45997" stroke-linecap="round" stroke-linejoin="round"/>
<path id="Vector_3" d="M2.46 20.9099C2.45942 21.1452 2.52632 21.3756 2.65276 21.574C2.77921 21.7724 2.95989 21.9304 3.17339 22.0292L13.7513 26.8384C14.0701 26.9828 14.416 27.0575 14.766 27.0575C15.116 27.0575 15.4619 26.9828 15.7807 26.8384L26.334 22.0415C26.5517 21.9436 26.7363 21.7845 26.8651 21.5836C26.994 21.3827 27.0616 21.1486 27.0597 20.9099" stroke="var(--stroke-0, #5CCB5F)" stroke-width="2.45997" stroke-linecap="round" stroke-linejoin="round"/>
</g>
</svg>
