<svg preserveAspectRatio="none" width="100%" height="100%" overflow="visible" style="display: block;" viewBox="0 0 29.5196 29.5196" fill="none" xmlns="http://www.w3.org/2000/svg">
<g id="SVG">
<path id="Vector" d="M8.60983 20.0483C11.3158 20.0483 13.5298 17.7974 13.5298 15.0669C13.5298 13.6401 12.8287 12.2871 11.4265 11.1432C10.0243 9.99935 8.96653 8.30197 8.60983 6.51849C8.25314 8.30197 7.20765 10.0116 5.79317 11.1432C4.37869 12.2748 3.6899 13.6524 3.6899 15.0669C3.6899 17.7974 5.90387 20.0483 8.60983 20.0483Z" stroke="var(--stroke-0, #5CCB5F)" stroke-width="2.45997" stroke-linecap="round" stroke-linejoin="round"/>
<path id="Vector_2" d="M15.4486 8.11768C16.2945 6.76608 16.8942 5.27524 17.2197 3.71434C17.8347 6.7893 19.6797 9.74126 22.1397 11.7092C24.5997 13.6772 25.8296 16.0142 25.8296 18.4742C25.8367 20.1743 25.3387 21.8383 24.3989 23.2552C23.4591 24.6721 22.1198 25.778 20.5507 26.4328C18.9816 27.0875 17.2535 27.2617 15.5853 26.9331C13.9172 26.6045 12.3841 25.7881 11.1805 24.5872" stroke="var(--stroke-0, #5CCB5F)" stroke-width="2.45997" stroke-linecap="round" stroke-linejoin="round"/>
</g>
</svg>
