<svg preserveAspectRatio="none" width="100%" height="100%" overflow="visible" style="display: block;" viewBox="0 0 29.5196 29.5196" fill="none" xmlns="http://www.w3.org/2000/svg">
<g id="SVG">
<path id="Vector" d="M4.91998 17.2193C4.68723 17.2201 4.45902 17.1548 4.26189 17.0311C4.06475 16.9074 3.90676 16.7302 3.80629 16.5203C3.70582 16.3103 3.66699 16.0762 3.6943 15.845C3.72162 15.6139 3.81396 15.3952 3.9606 15.2144L16.1374 2.66861C16.2288 2.56318 16.3533 2.49193 16.4904 2.46656C16.6276 2.44119 16.7693 2.46322 16.8923 2.52901C17.0153 2.5948 17.1123 2.70046 17.1674 2.82864C17.2224 2.95682 17.2322 3.0999 17.1952 3.2344L14.8337 10.6389C14.764 10.8253 14.7406 11.0258 14.7655 11.2232C14.7904 11.4206 14.8628 11.609 14.9764 11.7722C15.0901 11.9355 15.2417 12.0688 15.4182 12.1606C15.5947 12.2524 15.7909 12.3 15.9898 12.2994H24.5997C24.8325 12.2986 25.0607 12.3639 25.2578 12.4876C25.455 12.6113 25.613 12.7885 25.7134 12.9984C25.8139 13.2084 25.8527 13.4425 25.8254 13.6737C25.7981 13.9048 25.7058 14.1235 25.5591 14.3043L13.3823 26.8501C13.2909 26.9555 13.1665 27.0268 13.0293 27.0521C12.8921 27.0775 12.7504 27.0555 12.6274 26.9897C12.5044 26.9239 12.4074 26.8182 12.3524 26.6901C12.2973 26.5619 12.2875 26.4188 12.3245 26.2843L14.6861 18.8798C14.7557 18.6934 14.7791 18.4929 14.7542 18.2955C14.7293 18.0982 14.657 17.9097 14.5433 17.7465C14.4296 17.5832 14.278 17.4499 14.1015 17.3581C13.925 17.2663 13.7288 17.2187 13.5299 17.2193H4.91998Z" stroke="var(--stroke-0, #5CCB5F)" stroke-width="2.45997" stroke-linecap="round" stroke-linejoin="round"/>
</g>
</svg>
