<svg preserveAspectRatio="none" width="100%" height="100%" overflow="visible" style="display: block;" viewBox="0 0 29.5196 29.5196" fill="none" xmlns="http://www.w3.org/2000/svg">
<g id="SVG">
<path id="Vector" d="M27.0596 14.76H24.0093C23.4717 14.7588 22.9486 14.9338 22.5199 15.2581C22.0912 15.5824 21.7805 16.0382 21.6354 16.5558L18.7449 26.8384C18.7263 26.9023 18.6874 26.9584 18.6342 26.9983C18.581 27.0382 18.5163 27.0598 18.4497 27.0598C18.3832 27.0598 18.3185 27.0382 18.2652 26.9983C18.212 26.9584 18.1732 26.9023 18.1545 26.8384L11.365 2.68153C11.3464 2.61766 11.3075 2.56155 11.2543 2.52163C11.2011 2.48171 11.1364 2.46013 11.0698 2.46013C11.0033 2.46013 10.9385 2.48171 10.8853 2.52163C10.8321 2.56155 10.7933 2.61766 10.7746 2.68153L7.88416 12.9642C7.73959 13.4798 7.43076 13.9341 7.00455 14.2582C6.57834 14.5823 6.05803 14.7584 5.52259 14.76H2.45993" stroke="var(--stroke-0, #5CCB5F)" strokeWidth="2.45997" strokeLinecap="round" strokeLinejoin="round"/>
</g>
</svg>
