<svg preserveAspectRatio="none" width="100%" height="100%" overflow="visible" style="display: block;" viewBox="0 0 24.2271 24.2271" fill="none" xmlns="http://www.w3.org/2000/svg">
<g id="SVG">
<path id="Vector" d="M17.1609 2.01758H7.06624C4.27868 2.01758 2.01892 4.27734 2.01892 7.0649V17.1595C2.01892 19.9471 4.27868 22.2069 7.06624 22.2069H17.1609C19.9484 22.2069 22.2082 19.9471 22.2082 17.1595V7.0649C22.2082 4.27734 19.9484 2.01758 17.1609 2.01758Z" stroke="var(--stroke-0, white)" strokeWidth="2.01893" strokeLinecap="round" strokeLinejoin="round"/>
<path id="Vector_2" d="M16.1514 11.4788C16.276 12.3189 16.1325 13.1769 15.7413 13.9308C15.3502 14.6846 14.7313 15.296 13.9726 15.6778C13.214 16.0597 12.3543 16.1926 11.5158 16.0576C10.6772 15.9227 9.9026 15.5268 9.30205 14.9263C8.7015 14.3257 8.3056 13.5511 8.17067 12.7126C8.03574 11.874 8.16865 11.0143 8.55049 10.2557C8.93233 9.49705 9.54366 8.87814 10.2975 8.48697C11.0514 8.0958 11.9094 7.9523 12.7495 8.07688C13.6065 8.20396 14.3999 8.60328 15.0124 9.21587C15.625 9.82845 16.0243 10.6218 16.1514 11.4788Z" stroke="var(--stroke-0, white)" strokeWidth="2.01893" strokeLinecap="round" strokeLinejoin="round"/>
<path id="Vector_3" d="M17.6656 6.56055H17.6757" stroke="var(--stroke-0, white)" strokeWidth="2.01893" strokeLinecap="round" strokeLinejoin="round"/>
</g>
</svg>
