<svg preserveAspectRatio="none" width="100%" height="100%" overflow="visible" style="display: block;" viewBox="0 0 24.2271 24.2271" fill="none" xmlns="http://www.w3.org/2000/svg">
<g id="SVG">
<path id="Vector" d="M16.1514 8.07422C17.7578 8.07422 19.2984 8.71234 20.4342 9.84821C21.5701 10.9841 22.2082 12.5246 22.2082 14.131V21.1972H18.1704V14.131C18.1704 13.5955 17.9577 13.082 17.579 12.7034C17.2004 12.3248 16.6869 12.1121 16.1514 12.1121C15.616 12.1121 15.1025 12.3248 14.7238 12.7034C14.3452 13.082 14.1325 13.5955 14.1325 14.131V21.1972H10.0947V14.131C10.0947 12.5246 10.7328 10.9841 11.8686 9.84821C13.0045 8.71234 14.5451 8.07422 16.1514 8.07422Z" stroke="var(--stroke-0, white)" stroke-width="2.01893" stroke-linecap="round" stroke-linejoin="round"/>
<path id="Vector_2" d="M6.05679 9.08594H2.01894V21.1995H6.05679V9.08594Z" stroke="var(--stroke-0, white)" stroke-width="2.01893" stroke-linecap="round" stroke-linejoin="round"/>
<path id="Vector_3" d="M4.03786 6.05543C5.15289 6.05543 6.05679 5.15153 6.05679 4.03651C6.05679 2.92148 5.15289 2.01758 4.03786 2.01758C2.92284 2.01758 2.01894 2.92148 2.01894 4.03651C2.01894 5.15153 2.92284 6.05543 4.03786 6.05543Z" stroke="var(--stroke-0, white)" stroke-width="2.01893" stroke-linecap="round" stroke-linejoin="round"/>
</g>
</svg>
